<?xml version="1.0" standalone="no"?>
<!DOCTYPE svg PUBLIC "-//W3C//DTD SVG 20010904//EN"
 "http://www.w3.org/TR/2001/REC-SVG-20010904/DTD/svg10.dtd">
<svg version="1.0" xmlns="http://www.w3.org/2000/svg"
 width="700.000000pt" height="700.000000pt" viewBox="0 0 700.000000 700.000000"
 preserveAspectRatio="xMidYMid meet">
<metadata>
Created by potrace 1.14, written by Peter Selinger 2001-2017
</metadata>
<g transform="translate(0.000000,700.000000) scale(0.100000,-0.100000)"
fill="#000000" stroke="none">
<path d="M4 3558 c3 -1894 6 -3452 6 -3463 1 -11 -2 -37 -6 -57 l-6 -38 3501
0 3501 0 0 3500 0 3500 -3501 0 -3501 0 6 -3442z m6247 3379 c-13 -13 -26 -3
-16 12 3 6 11 8 17 5 6 -4 6 -10 -1 -17z m-1635 -188 c3 -6 2 -15 -4 -21 -6
-6 -11 -2 -15 11 -5 22 7 29 19 10z m-3480 -140 c3 -6 0 -17 -7 -25 -18 -17
-44 -2 -36 20 7 18 33 21 43 5z m758 -215 c4 -9 4 -19 1 -23 -8 -7 -38 12 -43
27 -6 19 35 14 42 -4z m4949 -160 c-3 -8 -13 -14 -22 -12 -18 4 -26 31 -16 56
6 15 9 14 25 -6 11 -13 16 -30 13 -38z m-1469 37 c9 -14 -4 -41 -19 -41 -15 0
-24 19 -17 38 5 14 28 16 36 3z m-3429 -11 c3 -5 -1 -10 -10 -10 -9 0 -13 5
-10 10 3 6 8 10 10 10 2 0 7 -4 10 -10z m2425 -51 c0 -6 -4 -7 -10 -4 -5 3
-10 11 -10 16 0 6 5 7 10 4 6 -3 10 -11 10 -16z m-1516 -40 c-3 -5 -10 -7 -15
-3 -5 3 -7 10 -3 15 3 5 10 7 15 3 5 -3 7 -10 3 -15z m1166 -100 c0 -5 -7 -9
-15 -9 -15 0 -20 12 -9 23 8 8 24 -1 24 -14z m-3584 -27 c-13 -13 -17 -13 -31
-2 -16 13 -15 15 1 27 13 10 21 10 31 1 12 -10 12 -14 -1 -26z m2924 8 c0 -5
-4 -10 -10 -10 -5 0 -10 5 -10 10 0 6 5 10 10 10 6 0 10 -4 10 -10z m-1774
-35 c4 -8 3 -23 -1 -32 -6 -16 -8 -15 -20 7 -7 14 -11 28 -9 32 8 13 24 9 30
-7z m-1141 -45 c3 -5 -1 -10 -10 -10 -9 0 -13 5 -10 10 3 6 8 10 10 10 2 0 7
-4 10 -10z m4243 -136 c-4 -24 -24 -29 -32 -8 -8 20 13 49 27 35 5 -5 7 -17 5
-27z m387 -313 c3 -5 1 -12 -5 -16 -5 -3 -10 1 -10 9 0 18 6 21 15 7z m-2005
-25 c0 -11 -19 -15 -25 -6 -3 5 1 10 9 10 9 0 16 -2 16 -4z m315 -79 c-8 -18
-35 -12 -35 8 0 16 22 26 33 15 4 -3 5 -14 2 -23z m1842 -213 c7 -19 -20 -49
-36 -40 -12 8 -15 39 -4 49 12 12 33 7 40 -9z m-847 -59 c0 -8 -6 -15 -13 -15
-8 0 -14 7 -14 15 0 8 6 15 14 15 7 0 13 -7 13 -15z m210 -90 c0 -8 -4 -15
-10 -15 -5 0 -10 7 -10 15 0 8 5 15 10 15 6 0 10 -7 10 -15z m-827 -51 c8 -8
-3 -34 -14 -34 -5 0 -9 9 -9 20 0 19 11 26 23 14z m-3583 -12 c0 -13 -12 -22
-22 -16 -10 6 -1 24 13 24 5 0 9 -4 9 -8z m5970 -33 c0 -5 -9 -9 -20 -9 -19 0
-27 20 -13 33 7 8 33 -11 33 -24z m330 -60 c0 -5 -7 -9 -15 -9 -15 0 -20 12
-9 23 8 8 24 -1 24 -14z m-2009 -25 c10 -13 10 -17 -1 -24 -19 -12 -40 -1 -40
21 0 23 23 25 41 3z m-2861 -60 c0 -8 -4 -12 -10 -9 -5 3 -10 10 -10 16 0 5 5
9 10 9 6 0 10 -7 10 -16z m2320 -270 c0 -8 -4 -12 -10 -9 -5 3 -10 10 -10 16
0 5 5 9 10 9 6 0 10 -7 10 -16z m-200 -55 c0 -5 -4 -9 -10 -9 -5 0 -10 7 -10
16 0 8 5 12 10 9 6 -3 10 -10 10 -16z m2925 11 c-3 -5 -12 -10 -20 -10 -8 0
-17 5 -20 10 -4 6 5 10 20 10 15 0 24 -4 20 -10z m-4415 -160 c0 -5 -7 -10
-15 -10 -8 0 -15 5 -15 10 0 6 7 10 15 10 8 0 15 -4 15 -10z m-1890 -206 c0
-16 -16 -19 -25 -4 -8 13 4 32 16 25 5 -4 9 -13 9 -21z m4355 -74 c-3 -5 -11
-10 -16 -10 -6 0 -7 5 -4 10 3 6 11 10 16 10 6 0 7 -4 4 -10z m1905 -5 c0 -8
-4 -15 -9 -15 -13 0 -22 16 -14 24 11 11 23 6 23 -9z m-6320 -81 c0 -8 -5 -12
-10 -9 -6 4 -8 11 -5 16 9 14 15 11 15 -7z m560 -10 c0 -8 -5 -12 -10 -9 -6 4
-8 11 -5 16 9 14 15 11 15 -7z m796 -37 c4 -3 7 -165 8 -358 l1 -352 32 -11
c17 -6 34 -14 38 -17 12 -13 8 -101 -6 -110 -26 -16 -101 -10 -145 13 -52 25
-70 59 -79 148 -11 96 -14 684 -4 690 12 8 147 6 155 -3z m-1124 -60 c101 -47
108 -66 49 -136 l-29 -35 -61 28 c-34 15 -65 25 -70 22 -5 -4 -11 -1 -13 5
-10 29 -137 7 -164 -28 -17 -22 -18 -73 -1 -93 15 -20 49 -33 152 -60 163 -42
206 -69 243 -149 58 -126 8 -264 -117 -323 -39 -19 -63 -22 -156 -23 -96 0
-118 3 -172 26 -66 28 -128 73 -136 100 -5 19 6 41 47 91 l30 36 43 -38 c65
-57 108 -74 185 -75 78 0 117 22 132 74 19 66 -16 96 -163 138 -199 56 -261
114 -263 244 -1 100 76 191 187 220 17 5 74 7 127 5 77 -3 108 -9 150 -29z
m2853 12 c33 -10 75 -31 94 -47 l35 -29 -22 -35 c-12 -19 -30 -42 -41 -52 -19
-17 -22 -17 -73 8 -91 43 -159 51 -218 23 -56 -27 -64 -101 -15 -133 14 -9 68
-27 120 -40 205 -51 272 -108 280 -241 4 -71 -17 -130 -63 -178 -54 -56 -111
-78 -214 -83 -108 -5 -200 20 -273 76 -66 50 -69 74 -17 133 l40 44 38 -33
c111 -93 236 -108 308 -37 16 17 22 82 8 100 -16 23 -65 46 -152 70 -184 52
-251 105 -265 207 -15 110 49 212 157 249 68 24 192 23 273 -2z m1690 -71 c2
-13 6 -43 7 -68 l3 -45 70 -1 c39 0 75 -1 81 -2 7 -1 11 -25 10 -59 l-1 -58
-80 -5 -80 -5 0 -163 c0 -192 2 -197 91 -189 28 3 56 2 61 -2 8 -5 33 -77 33
-95 0 -4 -19 -16 -42 -26 -81 -37 -211 -19 -260 36 -29 34 -41 106 -43 274
l-2 165 -39 3 c-21 2 -43 7 -47 11 -12 12 -16 59 -8 89 6 22 14 27 45 29 21 1
40 4 42 6 2 2 6 21 9 43 11 71 20 78 101 83 38 2 44 -1 49 -21z m-1385 -63 c0
-8 -4 -15 -10 -15 -5 0 -10 7 -10 15 0 8 5 15 10 15 6 0 10 -7 10 -15z m-1477
-64 c19 -7 43 -22 55 -34 39 -41 43 -66 56 -322 5 -86 12 -115 29 -115 45 0
66 -99 25 -121 -47 -25 -178 10 -178 47 0 21 -19 17 -54 -13 -43 -36 -87 -53
-139 -53 -117 0 -193 79 -185 192 7 100 53 138 218 182 64 17 100 32 112 46
24 29 23 36 -8 67 -22 22 -32 25 -70 20 -24 -2 -73 -19 -108 -37 -35 -18 -71
-30 -79 -27 -27 10 -50 66 -39 92 13 28 119 82 182 93 48 8 128 1 183 -17z
m2435 4 c26 -8 62 -27 79 -42 l33 -28 -39 -44 -40 -44 -48 23 c-26 13 -71 25
-98 28 -41 3 -53 0 -68 -16 -24 -26 -18 -60 13 -77 14 -8 64 -26 113 -40 133
-39 182 -94 176 -197 -6 -101 -84 -167 -209 -176 -68 -5 -153 9 -200 33 -27
14 -80 63 -80 74 0 3 18 26 39 51 l39 44 38 -25 c95 -62 174 -69 217 -21 35
40 -10 77 -133 109 -72 18 -136 57 -154 91 -33 64 -23 156 22 206 65 69 174
88 300 51z m1093 5 c19 -5 55 -26 78 -47 61 -52 83 -109 83 -218 1 -89 22 -80
-197 -81 -107 0 -197 -3 -201 -6 -8 -9 29 -90 48 -106 22 -17 105 -30 146 -21
19 4 46 19 61 33 15 14 33 26 40 26 19 0 101 -53 101 -64 0 -5 -21 -30 -48
-55 -138 -133 -387 -98 -471 67 -38 75 -47 197 -21 280 50 156 211 237 381
192z m740 -10 c10 -6 30 -26 44 -44 l26 -34 35 33 c48 47 111 69 179 62 70 -7
111 -32 135 -82 29 -61 32 -83 37 -317 l5 -218 -85 0 -85 0 -1 203 c-1 279 -4
291 -76 285 -46 -4 -89 -27 -105 -57 -19 -36 -25 -111 -29 -383 l-1 -48 -75 0
c-53 0 -75 4 -75 13 -1 6 -2 104 -4 217 -1 137 -6 212 -14 227 -15 27 -50 38
-99 30 -46 -8 -71 -31 -80 -76 -4 -20 -8 -39 -9 -43 -1 -5 -2 -89 -3 -188 l-1
-181 -77 3 -78 3 0 305 0 305 57 1 c69 1 78 -4 81 -44 2 -37 16 -41 43 -11 55
61 178 80 255 39z m-5276 -8 c217 -110 208 -482 -14 -579 -57 -25 -185 -26
-248 -2 -54 21 -113 73 -140 124 -42 77 -49 201 -17 301 23 74 88 142 160 166
68 24 204 19 259 -10z m1451 -13 c1 -19 2 -38 3 -44 0 -5 18 7 39 27 20 20 49
41 63 46 29 12 98 7 112 -7 5 -5 6 -35 2 -70 l-7 -61 -63 0 c-82 0 -117 -26
-135 -101 -15 -61 -15 -128 -1 -142 7 -7 7 -14 0 -23 -5 -7 -11 -54 -12 -106
l-2 -93 -78 -3 -77 -3 -1 188 c-2 310 2 417 14 425 6 3 40 5 76 4 l66 -3 1
-34z m1075 32 l36 -1 32 -92 c43 -125 122 -330 126 -326 2 2 36 93 75 203 40
110 75 203 79 207 5 6 93 12 129 9 6 0 12 -8 12 -16 0 -20 -82 -246 -190 -522
-89 -229 -110 -262 -193 -305 -52 -26 -161 -35 -197 -16 -26 14 -34 56 -20
108 6 23 10 25 62 22 65 -4 119 15 142 50 14 22 14 30 2 79 -26 97 -159 440
-203 521 -14 26 -23 54 -20 62 6 14 45 24 77 20 8 -2 31 -3 51 -3z m-3003
-563 c-6 -18 -28 -21 -28 -4 0 9 7 16 16 16 9 0 14 -5 12 -12z m2662 -78 c8
-5 11 -12 8 -16 -10 -9 -38 3 -38 16 0 12 10 13 30 0z m-1623 -64 c-9 -23 -37
-20 -37 3 0 21 20 33 34 20 5 -4 6 -15 3 -23z m-737 9 c0 -8 -4 -15 -9 -15
-13 0 -22 16 -14 24 11 11 23 6 23 -9z m314 -62 c7 -17 0 -33 -14 -33 -13 0
-32 38 -25 50 8 12 32 2 39 -17z m2565 -142 c-15 -5 -22 6 -14 19 6 9 10 9 16
-1 5 -8 4 -15 -2 -18z m123 -206 c0 -5 -5 -11 -11 -13 -6 -2 -11 4 -11 13 0 9
5 15 11 13 6 -2 11 -8 11 -13z m-522 -101 c0 -16 -16 -19 -25 -4 -8 13 4 32
16 25 5 -4 9 -13 9 -21z m682 -19 c0 -5 -5 -11 -11 -13 -6 -2 -11 4 -11 13 0
9 5 15 11 13 6 -2 11 -8 11 -13z m-2422 -71 c0 -16 -16 -19 -25 -4 -8 13 4 32
16 25 5 -4 9 -13 9 -21z m2355 -474 c3 -5 2 -10 -4 -10 -5 0 -13 5 -16 10 -3
6 -2 10 4 10 5 0 13 -4 16 -10z m504 -9 c14 -9 9 -41 -7 -41 -15 0 -34 28 -27
40 8 12 16 13 34 1z m-2863 -112 c9 -16 -12 -33 -31 -25 -14 5 -15 9 -5 21 15
18 26 19 36 4z m-494 -37 c9 -9 9 -16 -3 -27 -13 -13 -18 -13 -34 -2 -11 8
-16 21 -12 30 7 17 31 17 49 -1z m-1010 -44 c-7 -7 -12 -8 -12 -2 0 14 12 26
19 19 2 -3 -1 -11 -7 -17z m178 -32 c0 -28 -17 -43 -32 -28 -7 7 -6 17 1 31
16 28 31 27 31 -3z m4120 -241 c0 -8 -7 -15 -15 -15 -26 0 -18 20 13 29 1 1 2
-6 2 -14z m189 -124 c-15 -5 -22 6 -14 19 6 9 10 9 16 -1 5 -8 4 -15 -2 -18z
m-3684 0 c3 -5 1 -12 -5 -16 -5 -3 -10 1 -10 9 0 18 6 21 15 7z m3070 -171
c-3 -5 -11 -10 -16 -10 -6 0 -7 5 -4 10 3 6 11 10 16 10 6 0 7 -4 4 -10z
m2700 -39 c7 -12 -12 -24 -25 -16 -11 7 -4 25 10 25 5 0 11 -4 15 -9z m-1795
-46 c-7 -8 -17 -15 -22 -15 -6 0 -5 7 2 15 7 8 17 15 22 15 6 0 5 -7 -2 -15z
m1020 -125 c0 -5 -7 -10 -15 -10 -8 0 -15 5 -15 10 0 6 7 10 15 10 8 0 15 -4
15 -10z m-4160 -170 c0 -5 -4 -10 -9 -10 -6 0 -13 5 -16 10 -3 6 1 10 9 10 9
0 16 -4 16 -10z m404 -79 c3 -5 -1 -12 -10 -15 -20 -8 -29 -1 -19 13 8 13 22
14 29 2z m812 -32 c10 -17 -13 -36 -27 -22 -12 12 -4 33 11 33 5 0 12 -5 16
-11z m3374 -144 c0 -9 -6 -12 -15 -9 -8 4 -12 10 -9 15 8 14 24 10 24 -6z
m-3485 -35 c3 -5 -1 -10 -9 -10 -9 0 -16 5 -16 10 0 6 4 10 9 10 6 0 13 -4 16
-10z m-1871 -39 c9 -14 -4 -41 -19 -41 -15 0 -28 27 -19 41 7 12 31 12 38 0z
m1975 -98 c-8 -9 -16 -10 -22 -4 -13 13 0 31 19 24 11 -4 12 -8 3 -20z m-2180
-72 c19 -12 6 -41 -19 -41 -18 0 -21 13 -11 48 2 5 16 1 30 -7z m5266 -71 c3
-5 2 -10 -4 -10 -5 0 -13 5 -16 10 -3 6 -2 10 4 10 5 0 13 -4 16 -10z m-165
-130 c0 -5 -4 -10 -10 -10 -5 0 -10 5 -10 10 0 6 5 10 10 10 6 0 10 -4 10 -10z"/>
<path d="M2115 3366 c-5 -2 -30 -9 -55 -17 -25 -7 -58 -22 -74 -32 -24 -17
-27 -25 -23 -55 9 -51 32 -72 82 -72 33 0 50 6 73 28 30 28 56 97 50 130 -3
16 -30 25 -53 18z"/>
<path d="M5570 3563 c-32 -22 -70 -65 -70 -79 0 -18 36 -24 148 -24 63 0 102
4 102 10 0 24 -30 79 -51 94 -30 21 -98 21 -129 -1z"/>
<path d="M982 3558 c-82 -41 -90 -272 -12 -330 31 -23 106 -26 145 -7 55 27
66 55 66 163 0 110 -14 144 -65 168 -39 18 -104 21 -134 6z m148 -53 c0 -8 -4
-15 -10 -15 -5 0 -10 7 -10 15 0 8 5 15 10 15 6 0 10 -7 10 -15z"/>
</g>
</svg>
